# xmcd CD database file
#
# Track frame offsets:
#	150
#	11376
#	25943
#	59088
#	93274
#	119938
#	150401
#	165500
#	215946
#	250219
#	274160
#	295264
#
# Disc length: 4138 seconds
#
# Revision: 0
# Processed by: cddbd v1.5.2PL0 Copyright (c) Steve Scherf et al.
# Submitted via: CDex 1.70beta2
#
DISCID=af10280c
DTITLE=Various Artist - 散歩ジャズ AROMA-026
DYEAR=2016
DGENRE=Jazz
TTITLE0=Get Happy
TTITLE1=Peri's Scope
TTITLE2=Better Get In Your Soul
TTITLE3=Big Fat Mama
TTITLE4=Gal In Calico
TTITLE5=Just One Of Those Things
TTITLE6=Jump For Joy
TTITLE7=Oh，Lady Be Good
TTITLE8=After You’ve Gone
TTITLE9=Who Killed Cock Robin？
TTITLE10=O．D．
TTITLE11=Bass Goin’Crazy
EXTD=YEAR: 2016
EXTT0=
EXTT1=
EXTT2=
EXTT3=
EXTT4=
EXTT5=
EXTT6=
EXTT7=
EXTT8=
EXTT9=
EXTT10=
EXTT11=
PLAYORDER=
